<svg xmlns="http://www.w3.org/2000/svg" width="197.624" height="49.41" viewBox="0 0 729.1 182.28" shape-rendering="geometricPrecision" image-rendering="optimizeQuality" fill-rule="evenodd"><g fill="#fff"><path d="M627.31 113.36c2.78 1.3 15.47 4.7 29.48 4.7 12.71 0 24.11-2.76 31.27-10.21 5.71-6 8.15-14.11 8.15-22.05 0-7.13-1.95-11.84-5.21-14.91-4.22-4.22-10.74-5.83-17.26-6.81-7.49-1.46-14.82-1.79-14.98-8.59v-.17c0-2.74.97-5.18 3.09-6.96 3.09-2.43 7.99-2.92 12.05-2.92 8.63 0 17.91 2.1 19.55 2.27 1.58.21 2.63.11 3.24-1.93l3.11-10.22c.32-1.01.09-2.47-1.48-2.92-3.09-.97-13.02-3.72-26.05-3.72-10.42 0-24.26 1.45-32.4 11.18-4.57 5.51-6.51 13.14-6.51 20.26 0 6.81 1.95 11.18 5.04 14.43 5.37 5.18 13.68 6.31 19.71 7.45 3.75.65 6.84 1.14 9.12 2.27 2.29 1.14 3.41 2.92 3.41 6.33 0 2.75-.97 5.51-3.41 7.45-2.77 2.43-6.99 3.24-11.56 3.24-10.1 0-21.33-3.24-23.45-3.72-.33-.16-.49-.16-.82-.16-.97 0-1.63.49-2.11 1.95l-3.27 10.37c-.15.65-.15.97-.15 1.46 0 1.46.97 1.62 1.46 1.94zm-81.09 0c2.77 1.3 15.48 4.7 29.48 4.7 12.7 0 24.1-2.76 31.28-10.21 5.69-6 8.14-14.11 8.14-22.05 0-7.13-1.96-11.84-5.22-14.91-4.23-4.22-10.75-5.83-17.26-6.81-7.5-1.46-14.83-1.79-14.98-8.59v-.17c0-2.74.98-5.18 3.09-6.96 3.09-2.43 7.97-2.92 12.06-2.92 8.62 0 17.91 2.1 19.52 2.27.33 0 .49.16.66.16 1.15 0 2.13-.48 2.45-1.62l3.27-10.69v-.82c0-.96-.33-1.77-1.47-2.1-3.09-.97-13.03-3.72-26.06-3.72-10.42 0-24.26 1.45-32.42 11.18-4.55 5.51-6.51 13.14-6.51 20.26 0 6.81 1.96 11.18 5.05 14.43 5.36 5.18 13.68 6.31 19.71 7.45 3.75.65 6.83 1.14 9.13 2.27 2.27 1.14 3.4 2.92 3.4 6.33 0 2.75-.97 5.51-3.4 7.45-2.79 2.43-7.01 3.24-11.58 3.24-10.09 0-21.33-3.24-23.45-3.72-.33-.16-.49-.16-.81-.16-.98 0-1.63.49-2.13 1.95l-3.25 10.37c-.18.65-.18.97-.18 1.46 0 1.46.99 1.62 1.47 1.94zm-48.14-68.07c8.64 0 14.17 3.74 14.17 12.65 0 13.61-14.49 12.15-33.21 13.11.63-12.79 4.06-25.76 19.03-25.76zm28.84 64.51v-.66l-1.15-9.08c-.32-1.61-1.13-2.43-2.28-2.43h-.65c-4.22 1.14-13.51 3.89-22.96 3.89-6.51 0-11.73-.81-15.63-2.59-4.57-2.26-6.69-6-6.69-11.51v-2.59h1.97c33.86-.49 56.51-1.62 56.51-28.36 0-22.05-14.99-27.54-36.32-27.54-13.68 0-26.72 3.23-34.36 12.63-6.19 7.63-12.06 23.83-12.06 41.65 0 22.69 10.58 35.01 38.61 35.01 11.06 0 22.31-1.45 32.9-5.35 1.13-.49 2.11-1.46 2.11-3.07zm-81.82 3.88c0-.15 0-.49-.16-.64L421 72.84l30.45-37.93c.48-.49.48-1.12.48-1.61 0-1.14-.81-2.28-1.61-2.28h-19.4c-2.43 0-3.73 0-5.2 2.28l-18.41 27.06-14.16-27.23c-.98-2.11-2.12-2.11-4.73-2.11h-19.05c-.81 0-2.28 1.46-2.28 2.92 0 .33 0 .65.17.8l21 38.26-33.71 40.03c-.32.32-.5.81-.5 1.29 0 .82.5 1.79 1.47 1.79h22.31c1.14 0 2.28-.81 2.92-1.62L402.42 85l16.45 29.49c.33.81 1.14 1.62 2.27 1.62h22c1.14 0 1.96-1.3 1.96-2.43zm-96.24-82.66h-19.38c-2.44 0-3.74 0-5.2 2.28l-18.42 27.07-14.17-27.23c-.98-2.11-2.11-2.11-4.72-2.11h-19.06c-.82 0-2.27 1.47-2.27 2.92 0 .33 0 .66.14.81l21.02 38.25-33.72 40.03c-.33.33-.48.82-.48 1.29 0 .82.48 1.79 1.46 1.79h22.32c1.14 0 2.28-.82 2.92-1.62l21.66-29.49 16.46 29.49c.32.81 1.14 1.62 2.27 1.62h21.99c1.13 0 1.95-1.29 1.95-2.43 0-.15 0-.49-.17-.65l-23.95-40.2 30.46-37.92c.48-.49.48-1.13.48-1.61 0-1.14-.81-2.28-1.63-2.28zM193.28 82.57c2.44-2.92 6.2-3.56 10.26-4.22l17.75-2.75-3.09 25.12c-2.29.64-7.66 1.78-13.69 1.78-3.9 0-8.95-.32-11.73-3.24-1.62-1.62-2.44-3.73-2.44-6.98 0-3.23.82-7.13 2.93-9.71zm-20.36 29.65c7.17 5.19 18.41 6.01 29 6.01 9.61 0 17.26-.81 23.45-2.28 11.57-2.42 16.29-4.53 17.92-16.85l4.56-36.31c.66-4.05 1.14-8.59 1.14-12.8 0-6.97-1.95-12.64-8.14-16.37-5.04-3.08-12.7-4.7-24.1-4.7-17.42 0-33.23 4.38-36.97 5.82-1.14.33-2.45 1.14-2.28 2.93v.32l.97 11.19c.17.97.82 1.45 1.8 1.45.33 0 .66-.16 1.13-.32 4.4-.97 17.27-4.37 27.87-4.37 5.36 0 9.12.48 11.39 1.62 2.28 1.14 3.11 2.76 3.11 5.2 0 2.42-.82 7.93-.82 7.93l-28.82 4.54c-8.15 1.14-16.94 2.91-22.8 10.05-4.25 5.35-6.03 12.8-6.03 19.77 0 8.43 2.94 13.78 7.65 17.18z"/><path d="M172.43 136.18h5.12l-7.17 35.86h-5.12l7.17-35.86zm30.3 8.45c3.11 0 5.52.79 7.25 2.36 1.72 1.57 2.59 3.79 2.59 6.66 0 .99-.1 2.05-.31 3.18l-3.02 15.22h-4.92l3.02-15.22c.17-.92.26-1.67.26-2.25 0-1.78-.53-3.14-1.59-4.1s-2.63-1.43-4.71-1.43c-2.66 0-4.86.73-6.58 2.18s-2.88 3.61-3.46 6.48l-2.87 14.34h-4.92l5.38-27.15h4.71l-.67 3.48c2.46-2.49 5.74-3.74 9.84-3.74zm25.9 18.75c-.1.51-.15.99-.15 1.43 0 1.09.3 1.93.9 2.51s1.49.87 2.69.87c1.43 0 2.73-.43 3.89-1.28l1.02 3.74c-1.64 1.13-3.74 1.69-6.3 1.69-2.15 0-3.88-.61-5.2-1.82-1.31-1.21-1.97-2.88-1.97-4.99 0-.72.07-1.4.2-2.05l2.92-14.55h-4.61l.77-4.05h4.66l1.18-5.94h4.92l-1.18 5.94h7.79l-.82 4.05h-7.79l-2.92 14.45zM249.4 160v.31c0 2.53.72 4.45 2.15 5.76s3.59 1.97 6.45 1.97c1.67 0 3.24-.28 4.71-.84s2.7-1.32 3.69-2.28l2.1 3.53c-1.33 1.23-2.95 2.19-4.87 2.87-1.91.68-3.93 1.02-6.05 1.02-2.66 0-4.97-.48-6.92-1.43-1.95-.96-3.45-2.32-4.51-4.1s-1.59-3.86-1.59-6.25c0-3.04.66-5.77 1.97-8.2 1.31-2.42 3.14-4.32 5.48-5.69s4.96-2.05 7.86-2.05c3.69 0 6.63 1.05 8.84 3.15 2.2 2.1 3.3 4.96 3.3 8.58 0 1.09-.12 2.3-.36 3.64h-22.29zm10.3-11.27c-2.42 0-4.51.68-6.25 2.05s-2.92 3.24-3.53 5.63h17.52c.14-2.42-.5-4.31-1.92-5.66s-3.36-2.02-5.81-2.02zm28.56.2c1.19-1.5 2.66-2.6 4.41-3.28 1.74-.68 3.86-1.02 6.35-1.02l-.92 4.77c-.31-.03-.73-.05-1.28-.05-5.64 0-9.05 3.04-10.25 9.12l-2.72 13.58h-4.92l5.38-27.15h4.71l-.77 4.05zm33.58-4.3c3.11 0 5.52.79 7.25 2.36 1.72 1.57 2.59 3.79 2.59 6.66 0 .99-.1 2.05-.31 3.18l-3.02 15.22h-4.92l3.02-15.22c.17-.92.26-1.67.26-2.25 0-1.78-.53-3.14-1.59-4.1s-2.63-1.43-4.71-1.43c-2.66 0-4.86.73-6.58 2.18s-2.88 3.61-3.46 6.48l-2.87 14.34h-4.92l5.38-27.15h4.71l-.67 3.48c2.46-2.49 5.74-3.74 9.84-3.74zM345.38 160v.31c0 2.53.72 4.45 2.15 5.76s3.59 1.97 6.45 1.97c1.67 0 3.24-.28 4.71-.84s2.7-1.32 3.69-2.28l2.1 3.53c-1.33 1.23-2.95 2.19-4.87 2.87-1.91.68-3.93 1.02-6.04 1.02-2.66 0-4.97-.48-6.92-1.43-1.95-.96-3.45-2.32-4.51-4.1s-1.59-3.86-1.59-6.25c0-3.04.66-5.77 1.97-8.2 1.32-2.42 3.14-4.32 5.48-5.69s4.96-2.05 7.86-2.05c3.69 0 6.63 1.05 8.84 3.15 2.2 2.1 3.3 4.96 3.3 8.58 0 1.09-.12 2.3-.36 3.64h-22.28zm10.3-11.27c-2.42 0-4.51.68-6.25 2.05s-2.92 3.24-3.53 5.63h17.52c.14-2.42-.5-4.31-1.92-5.66s-3.35-2.02-5.81-2.02zm26.51 14.65c-.1.51-.15.99-.15 1.43 0 1.09.3 1.93.9 2.51s1.49.87 2.69.87c1.43 0 2.73-.43 3.89-1.28l1.02 3.74c-1.64 1.13-3.74 1.69-6.3 1.69-2.15 0-3.88-.61-5.2-1.82-1.31-1.21-1.97-2.88-1.97-4.99 0-.72.07-1.4.2-2.05l2.92-14.55h-4.61l.77-4.05h4.66l1.18-5.94h4.92l-1.18 5.94h7.79l-.82 4.05h-7.79l-2.92 14.45zm73.39-18.49l-19.26 30.12c-1.74 2.73-3.4 4.63-4.97 5.69s-3.43 1.59-5.58 1.59c-1.33 0-2.63-.21-3.89-.64s-2.24-1.02-2.92-1.77l2.56-3.64c1.23 1.23 2.77 1.84 4.61 1.84 1.16 0 2.19-.31 3.07-.92.89-.61 1.81-1.66 2.77-3.12l1.38-2.15-6.56-27h4.92l5.23 21.72 13.68-21.72h4.97zm14.17 27.46c-2.56 0-4.8-.49-6.71-1.46s-3.4-2.35-4.46-4.12c-1.06-1.78-1.59-3.83-1.59-6.15 0-3.04.68-5.77 2.05-8.2s3.26-4.33 5.69-5.71c2.42-1.38 5.16-2.08 8.2-2.08 2.56 0 4.8.48 6.71 1.44s3.39 2.31 4.43 4.07 1.56 3.82 1.56 6.17c0 3.04-.68 5.78-2.05 8.22s-3.25 4.36-5.66 5.74-5.13 2.07-8.17 2.07zm.31-4.3c2.01 0 3.83-.49 5.46-1.46 1.62-.97 2.88-2.33 3.79-4.07.9-1.74 1.36-3.72 1.36-5.94 0-2.42-.7-4.3-2.1-5.63s-3.4-2-5.99-2c-2.01 0-3.82.49-5.43 1.46-1.6.97-2.87 2.33-3.79 4.07s-1.38 3.72-1.38 5.94c0 2.39.71 4.26 2.13 5.61s3.41 2.02 5.97 2.02zm53.2-23.16l-5.38 27.15h-4.71l.67-3.48c-1.23 1.26-2.67 2.21-4.33 2.84s-3.46.95-5.4.95c-3 0-5.38-.8-7.12-2.41s-2.61-3.84-2.61-6.71a16.97 16.97 0 0 1 .31-3.12l3.02-15.22h4.92l-3.02 15.27c-.17.92-.26 1.69-.26 2.3 0 1.78.52 3.13 1.56 4.07s2.59 1.41 4.64 1.41c2.6 0 4.76-.73 6.48-2.2s2.88-3.62 3.46-6.45l2.87-14.4h4.92zm16.32 4.05c1.19-1.5 2.66-2.6 4.41-3.28 1.74-.68 3.86-1.02 6.35-1.02l-.92 4.77c-.31-.03-.73-.05-1.28-.05-5.63 0-9.05 3.04-10.24 9.12l-2.72 13.58h-4.92l5.38-27.15h4.71l-.77 4.05zm86.75-4.05l-15.21 27.15h-4.82l-4.15-20.54-11.78 20.54h-4.71l-5.17-27.15h4.46l4 21.52 12.29-21.52h4.2l4.1 21.52 12.14-21.52h4.66zm32.61 0l-5.38 27.15h-4.71l.67-3.33c-1.23 1.16-2.65 2.06-4.28 2.69-1.62.63-3.39.95-5.3.95-2.32 0-4.39-.47-6.2-1.41s-3.23-2.3-4.25-4.07c-1.02-1.78-1.54-3.86-1.54-6.25 0-3.07.67-5.82 2-8.25 1.33-2.42 3.17-4.32 5.51-5.69s4.96-2.05 7.86-2.05c2.32 0 4.31.41 5.97 1.23a8.62 8.62 0 0 1 3.82 3.64l.92-4.61h4.92zm-17.93 23.16c2.02 0 3.83-.49 5.46-1.46 1.62-.97 2.89-2.33 3.79-4.07s1.36-3.72 1.36-5.94c0-2.42-.7-4.3-2.1-5.63s-3.4-2-5.99-2c-2.01 0-3.83.49-5.43 1.46s-2.87 2.33-3.79 4.07-1.38 3.72-1.38 5.94c0 2.39.71 4.26 2.13 5.61s3.41 2.02 5.97 2.02zm54.33-23.16l-19.26 30.12c-1.74 2.73-3.4 4.63-4.97 5.69s-3.43 1.59-5.58 1.59c-1.33 0-2.63-.21-3.89-.64s-2.24-1.02-2.92-1.77l2.56-3.64c1.23 1.23 2.77 1.84 4.61 1.84 1.16 0 2.19-.31 3.07-.92.89-.61 1.81-1.66 2.77-3.12l1.38-2.15-6.56-27h4.92l5.22 21.72 13.68-21.72h4.97zm25.34-112.61c-4.16 0-7.54 3.39-7.54 7.54a7.55 7.55 0 0 0 7.54 7.54 7.55 7.55 0 0 0 7.54-7.54c0-4.16-3.39-7.54-7.54-7.54zm-1.7 7.07h1.74c.57 0 1.02-.15 1.34-.43.32-.29.48-.68.48-1.19 0-.52-.15-.93-.44-1.21-.3-.29-.74-.44-1.33-.44h-1.79v3.27zm1.89 1.37h-1.89v3.76h-1.7v-9.77h3.44c1.13 0 2 .25 2.61.76s.92 1.24.92 2.19c0 .65-.15 1.2-.47 1.64s-.75.78-1.32 1.02l2.19 4.07v.09h-1.82l-1.96-3.76zm-.2 7.52c-4.64 0-8.42-3.78-8.42-8.42s3.78-8.42 8.42-8.42a8.43 8.43 0 0 1 8.42 8.42c0 4.64-3.78 8.42-8.42 8.42z" fill-rule="nonzero"/></g><path d="M119.57 105.96c7.13-5.93 13.05-12.2 16.98-18.45 3.03-4.83 4.73-10.63 4.69-16.34-.04-5.15-1.51-10.22-4.69-14.36-2.95-3.84-6.82-7.99-11.24-12.18-4.64-4.39-9.98-8.89-15.58-13.16-7.93-6.04-16.36-11.67-25.22-16.21-8.78-4.51-18.05-7.99-27.74-9.81-2.87-.54-5.65-.9-8.34-.93-2.58-.03-5.16.23-7.79.92-7.06 2.02-13.02 7.17-17.92 14.2-5.99 8.58-10.4 19.91-13.37 31.88-2.36 9.51-4.27 21.55-4.74 33.37-.39 9.59.16 18.98 2.18 26.65 2.22 7.76 5.46 15.59 10.34 21.25 4.56 5.28 10.69 8.75 18.96 8.46h.12c7.59-.05 16.58-1.74 26.08-4.66 10.05-3.09 20.57-7.53 30.54-12.86 9.72-5.2 18.97-11.26 26.77-17.75z" fill="#fe7f34"/><path d="M140.37 89.91c-8.68 13.82-26.16 27.47-45.44 37.78-20.05 10.72-42.27 17.94-58.72 18.05-9.67.34-16.97-3.59-22.52-10.02-5.21-6.02-8.76-14.2-11.26-22.97l-.36-1.36c-3.38-13.51-2.71-38.4 2.88-60.97C10.72 27.18 21.83 6.08 39.39 1.07l.93-.25C45.37-.44 51.35-.19 57.59.99c7.31 1.38 15.07 4.02 22.06 6.94 9.82 4.09 21.78 11.53 32.81 19.93 11.11 8.47 21.38 18.01 27.66 26.17 3.91 5.08 5.65 11.17 5.65 17.3 0 6.52-1.98 13.13-5.4 18.57zM51.05 8.65a149.29 149.29 0 0 1 17.11 12.01c4.35-.95 8.84-1.78 13.48-2.44a81.7 81.7 0 0 0-5.25-2.42c-6.55-2.73-13.73-5.19-20.37-6.44-1.71-.32-3.37-.56-4.97-.71zm43.06 16.73c-6.21.48-12.18 1.28-17.9 2.32 5.49 5.17 10.55 10.71 15.23 16.58 3.36 4.22 6.52 8.62 9.5 13.18 12.02 1.23 23.99 3.8 35.6 8.17-.62-2.29-1.66-4.47-3.15-6.41-5.82-7.56-15.52-16.54-26.1-24.6-4.33-3.3-8.79-6.44-13.19-9.25zm42.91 49.59c-9.87-4.08-20.07-6.71-30.39-8.23 5.78 10.05 10.79 20.75 15.18 31.99 4.67-4.36 8.56-8.86 11.38-13.34 1.96-3.12 3.3-6.73 3.84-10.42zm-29.58 35.21l-14.93 2.36c1.71 1.33 3.43 2.63 5.17 3.87a161.01 161.01 0 0 0 9.76-6.24zm-17.93 10.78c-2.87-2.17-5.69-4.45-8.47-6.83-10.91 1.42-21.81 2.57-31.88 3.29l-3.07.21c5.94 4.62 12.46 9.07 19.7 13.65 7.83-2.71 15.91-6.23 23.72-10.31zm-34.4 13.54c-8.02-5.31-15.17-10.6-21.68-16.31-8 .18-15.04-.06-20.55-.82 1.9 4.96 4.26 9.39 7.21 12.81 3.93 4.55 9.07 7.33 15.84 7.09h.12c5.68-.03 12.17-1.01 19.07-2.77zm-45.07-26.24c3.44.91 8.45 1.39 14.58 1.5-5.88-6.15-11.2-12.89-16.16-20.65-.08 7.46.46 14.1 1.58 19.15zm.3-41.52c8.08-1.96 16.68-3.9 25.64-5.54-3.64-5.69-6.94-11.32-9.86-16.75a261.26 261.26 0 0 0-12.58 6.56l-.37 1.45c-1.17 4.71-2.11 9.51-2.84 14.27zm6.77-27.28l5.14-2.58c-.77-1.57-1.5-3.12-2.19-4.64-1.06 2.31-2.04 4.72-2.95 7.22zm8.15-16.67c1.35 3.33 2.92 6.85 4.7 10.5 4.78-2.12 9.87-4.17 15.26-6.08a195.53 195.53 0 0 1 12.44-3.94C51.48 18.7 44.81 14.56 37.6 10.9c-4.71 2.44-8.81 6.59-12.34 11.88zm8.59 18.08c3.27 6.07 7.05 12.4 11.26 18.78 7.91-1.22 16.05-2.17 24.31-2.68 6.85-.42 13.77-.54 20.7-.26-1.72-2.43-3.51-4.81-5.36-7.13-5.66-7.11-11.91-13.69-18.84-19.68-6.3 1.54-12.26 3.35-17.88 5.34a207.03 207.03 0 0 0-14.2 5.63zM10.29 75.51c6.98 12.79 14.59 22.77 23.58 31.53.89.87 1.8 1.72 2.72 2.57a372.56 372.56 0 0 0 11.97-.67c7.69-.55 15.89-1.36 24.21-2.35-7.83-7.55-15.15-15.8-21.8-24.28a265.04 265.04 0 0 1-9.85-13.39c-10.83 1.87-21.21 4.22-30.82 6.59zm40.18-8.06c2.29 3.22 4.69 6.43 7.18 9.6 7.85 10 16.64 19.66 26.09 28.13 10.18-1.38 20.28-2.99 29.61-4.7-4.92-12.41-10.63-24.12-17.35-34.93-8.71-.67-17.45-.64-26.08-.11-6.56.4-13.07 1.1-19.46 2z" fill="#fff" fill-rule="nonzero"/></svg>