<svg xmlns="http://www.w3.org/2000/svg" xmlns:xlink="http://www.w3.org/1999/xlink" x="0px" y="0px" width="1000px" height="418.185px" viewBox="0 0 1000 418.185" xml:space="preserve"> <g id="Layer_1"> <path fill="#010101" d="M776.751,178.708c0,18.699-0.323,33.859,0.116,48.998c0.285,9.839,0.951,19.715,4.592,29.153 c3.272,8.479,8.187,15.367,17.187,17.846c9.615,2.649,19.203,2.049,26.903-5.137c4.919-4.591,7.124-10.953,8.659-17.512 c2.471-10.555,2.073-21.259,1.94-31.943c-0.032-2.593,0.65-3.173,3.173-3.131c9.794,0.161,19.593,0.067,29.39,0.064 c1.226,0,2.437-0.322,2.405,1.748c-0.232,15.001-0.593,29.982-4.835,44.542c-2.816,9.664-7.114,18.544-14.305,25.759 c-7.826,7.852-17.517,12.037-28.275,14.092c-7.128,1.362-14.331,1.703-21.524,1.3c-14.244-0.798-27.549-4.652-38.209-14.583 c-8.001-7.454-12.909-17.025-15.901-27.506c-2.876-10.074-4.222-20.365-4.984-30.839c-0.595-8.176-0.401-16.309-0.457-24.455 c-0.149-21.871-0.347-43.75,0.055-65.615c0.259-14.11,1.957-28.12,6.702-41.592c2.944-8.361,7.286-15.956,13.439-22.204 c7.188-7.3,16.19-11.645,26.279-13.801c7.513-1.606,15.089-2.372,22.717-1.955c13.2,0.722,26.01,3.317,36.542,11.899 c9.201,7.498,14.772,17.576,17.932,28.978c2.69,9.707,4.146,19.569,4.198,29.673c0.014,2.749,1.818,6.407,0.176,8.084 c-1.819,1.857-5.597,0.541-8.515,0.573c-7.746,0.086-15.495-0.072-23.238,0.09c-2.333,0.049-2.81-0.712-2.739-2.854 c0.154-4.666,0.34-9.362-0.02-14.005c-0.563-7.256-1.383-14.446-4.614-21.233c-3.883-8.155-10.773-11.477-18.994-12.433 c-4.857-0.565-9.843-0.374-14.731,0.947c-10.658,2.88-15.904,10.462-18.306,20.564c-1.424,5.988-1.757,12.099-2.201,18.244 C776.06,147.733,777.348,165,776.751,178.708z"></path> <path fill="#010101" d="M989.332,217.03c0,11.617,0.273,23.241-0.072,34.848c-0.386,12.984-2.994,25.495-10.902,36.235 c-4.947,6.719-11.624,11.205-19.613,13.691c-8.006,2.491-16.251,3.223-24.542,2.678c-12.318-0.811-23.791-3.912-32.588-13.468 c-6.176-6.708-9.341-14.839-11.37-23.502c-2.197-9.38-2.151-18.941-2.101-28.51c0.094-18.108-0.005-36.216,0.039-54.324 c0.027-10.872,1.943-21.447,6.626-31.261c6.15-12.885,16.655-20.222,30.74-22.511c5.211-0.847,10.428-1.61,15.715-1.335 c11.093,0.578,21.799,2.768,30.728,9.806c7.082,5.582,11.319,13.311,13.874,21.862c2.134,7.141,3.457,14.465,3.464,21.966 C989.341,194.48,989.332,205.755,989.332,217.03z"></path> <path fill="#010101" d="M725.485,274.516c0,9.151-0.002,18.027,0.003,26.903c0.001,0.934,0.069,1.645-1.32,1.794 c-8.185,0.881-16.381,1.847-24.613,1.276c-8.61-0.597-16.882-2.666-23.408-8.728c-4.716-4.381-7.3-10.163-8.742-16.394 c-1.44-6.224-2.028-12.576-2.04-18.943c-0.062-32.922-0.072-65.844,0.046-98.765c0.01-2.889-0.716-3.677-3.531-3.462 c-3.511,0.268-7.059,0.017-10.589,0.086c-1.553,0.031-2.456-0.071-2.416-2.119c0.143-7.288,0.11-14.581,0.015-21.87 c-0.022-1.721,0.581-2.078,2.15-2.038c3.871,0.099,7.755-0.129,11.615,0.092c2.37,0.135,2.734-0.755,2.724-2.864 c-0.078-17.771,0.039-35.543-0.127-53.312c-0.028-2.978,0.865-3.472,3.581-3.419c9.224,0.178,18.458,0.243,27.678-0.025 c3.297-0.096,3.768,1.03,3.747,3.946c-0.13,17.428-0.016,34.858-0.118,52.287c-0.015,2.507,0.392,3.514,3.234,3.408 c6.598-0.247,13.212-0.032,19.818-0.111c1.672-0.02,2.374,0.282,2.341,2.197c-0.123,7.175-0.137,14.354,0.005,21.528 c0.042,2.128-0.809,2.338-2.573,2.315c-6.834-0.088-13.67,0.016-20.504-0.072c-1.717-0.022-2.314,0.362-2.311,2.225 c0.059,34.061-0.102,68.123,0.153,102.182c0.058,7.765,4.112,13.712,13.555,13.275C717.672,275.73,721.405,275.332,725.485,274.516 z"></path> <path fill="#BDBEC0" d="M72.019,164.178c0,10.467-0.42,20.84,0.084,31.168c1.195,24.459,0.27,48.919,0.552,73.376 c0.023,1.985,0.678,2.964,2.416,3.896c19.581,10.504,39.115,21.099,58.648,31.692c7.073,3.836,14.079,7.798,21.19,11.564 c2.14,1.133,1.951,2.009,0.415,3.479c-9.116,8.725-14.943,19.238-17.003,31.746c-0.408,2.477-1.751,1.833-3.174,1.076 c-7.31-3.889-14.634-7.751-21.918-11.689c-6.879-3.719-13.693-7.558-20.569-11.281c-16.948-9.176-33.972-18.215-50.851-27.517 c-7.396-4.076-10.046-11.121-10.076-19.136c-0.102-27.109,0.309-54.225-0.202-81.325c-0.219-11.585-0.342-23.174-0.52-34.761 c-0.024-1.537-0.31-3.047,2.276-2.115c12.36,4.458,24.768,4.386,37.165,0.059C70.864,164.265,71.33,164.275,72.019,164.178z"></path> <path fill="#BDBEC0" d="M251.521,354.024c-2.065-13.825-7.796-25.136-17.272-34.52c-1.44-1.426-1.889-2.147,0.335-3.366 c11.024-6.044,21.952-12.262,32.91-18.425c14.414-8.105,28.604-16.653,43.348-24.106c5.826-2.945,6.846-6.477,6.689-12.215 c-0.368-13.43,0.37-26.899-0.238-40.311c-0.799-17.63-0.335-35.249-0.553-52.871c-0.053-4.282,0.041-4.317,4.179-3.014 c11.258,3.546,22.467,3.241,33.584-0.563c2.315-0.792,3.35-0.9,3.297,2.192c-0.581,33.798,1.051,67.585,0.631,101.384 c-0.061,4.897,0.016,9.795-0.014,14.693c-0.049,7.95-4.201,13.606-10.713,17.368c-14.907,8.612-29.996,16.91-45.03,25.301 c-10.387,5.797-20.812,11.528-31.21,17.306C264.943,346.501,258.441,350.155,251.521,354.024z"></path> <path fill="#BDBEC0" d="M191.894,11.993c5.883-1.077,10.804,1.552,15.692,4.207c9.657,5.247,19.265,10.584,28.931,15.813 c20.236,10.948,40.483,21.876,60.766,32.738c2.76,1.478,0.813,2.377-0.17,3.394c-7.858,8.132-13.644,17.424-16.268,28.547 c-1.28,5.425-1.384,5.48-6.165,2.913c-23.766-12.761-47.511-25.562-71.26-38.354c-1.794-0.966-3.787-1.718-5.296-3.023 c-3.294-2.849-6.091-1.606-9.297,0.217c-15.259,8.676-30.615,17.182-45.922,25.773c-10.466,5.873-20.911,11.785-31.364,17.682 c-1.553,0.876-2.871,1.559-3.309-1.168c-1.966-12.217-7.163-22.837-16.186-31.394c-2.236-2.12-2.024-3.049,0.618-4.514 c18.818-10.432,37.557-21.006,56.331-31.517c11.561-6.473,23.105-12.977,34.737-19.32 C186.187,12.648,188.929,11.684,191.894,11.993z"></path> <path fill="#2A317D" d="M194.776,247.805c-28.667,0.27-51.458-22.992-50.922-52.1c0.483-26.221,21.613-51.329,53.62-49.661 c26.729,1.393,47.885,22.16,47.969,50.829C245.527,225.175,223.793,247.593,194.776,247.805z"></path> <path fill="#010101" d="M592.88,217.047c0-27.224,0.039-54.448-0.064-81.671c-0.01-2.542,0.572-3.204,3.142-3.156 c9.451,0.174,18.908,0.144,28.361,0.014c2.241-0.031,2.789,0.582,2.786,2.8c-0.064,54.675-0.064,109.35,0,164.026 c0.003,2.218-0.544,2.832-2.786,2.801c-9.452-0.131-18.91-0.16-28.361,0.014c-2.569,0.047-3.152-0.612-3.143-3.156 C592.919,271.494,592.88,244.27,592.88,217.047z"></path> <path fill="#2A317D" d="M336.745,154.843c-23.562,0.777-46.943-19.739-44.659-48.594c1.816-22.938,20.122-41.559,44.512-41.42 c25.624,0.146,44.726,19.352,44.897,45.042C381.661,134.777,362.116,155.035,336.745,154.843z"></path> <path fill="#2A317D" d="M194.728,316.161c24.155-0.351,45.559,19.758,44.682,46.096c-0.864,25.955-20.334,43.913-45.119,43.888 c-24.473-0.025-45.805-19.501-44.332-48.052C151.084,336.293,169.383,315.694,194.728,316.161z"></path> <path fill="#2A317D" d="M51.741,154.843c-24.225,0.647-46.075-20.51-44.692-47.192c1.243-23.985,20.023-42.872,44.866-42.833 c24.574,0.038,45.312,19.246,44.647,46.787C95.998,134.975,76.77,155.069,51.741,154.843z"></path> <path fill="#BDBEC0" d="M108.048,122.179c3.941,2.346,7.829,4.626,11.683,6.963c9.479,5.745,18.897,11.592,28.441,17.227 c2.728,1.611,2.537,2.724,0.442,4.743c-8.607,8.295-14.13,18.415-17.131,29.94c-0.601,2.309-1.294,2.914-3.697,1.432 c-13.284-8.194-26.674-16.215-40.085-24.2c-2.446-1.456-1.502-2.525,0.002-3.73C99.939,144.753,104.655,133.507,108.048,122.179z"></path> <path fill="#BDBEC0" d="M280.105,119.845c1.837,9.498,5.791,17.64,11.18,25.149c2.277,3.172,5.229,5.676,7.979,8.367 c1.796,1.757,1.436,2.488-0.555,3.676c-12.914,7.705-25.759,15.526-38.626,23.311c-1.261,0.763-2.253,1.505-2.869-0.842 c-3.158-12.037-9.563-22.17-18.618-30.626c-1.907-1.78-2.093-2.735,0.37-4.203C252.633,136.536,266.214,128.251,280.105,119.845z"></path> <path fill="#BDBEC0" d="M214.878,283.407c0.001,6.941-0.084,13.885,0.047,20.824c0.045,2.384-0.461,2.936-2.805,2.054 c-5.65-2.127-11.624-3.057-17.593-3.008c-5.963,0.049-11.92,0.962-17.573,3.133c-2.041,0.784-3.177,0.903-3.148-2.042 c0.142-13.995,0.087-27.993,0.04-41.99c-0.008-2.275,0.248-3.304,3.071-2.553c11.792,3.137,23.644,3.533,35.436-0.148 c2.145-0.669,2.555,0.37,2.543,2.223C214.85,269.069,214.878,276.238,214.878,283.407z"></path> <path fill="#010101" d="M915.109,369.568c6.441-8.398,16.128-8.491,19.784-0.144c2.819-4.704,6.962-6.556,12.284-6.12 c3.911,0.32,7.209,3.586,8.024,7.626c0.974,4.829,0.555,9.673,0.617,14.511c0.082,6.493-0.019,12.987,0.049,19.48 c0.016,1.513-0.233,2.129-1.993,2.203c-8.29,0.349-8.287,0.418-8.287-7.847c0-6.608,0.005-13.215-0.002-19.823 c-0.005-4.81-1.179-6.618-4.238-6.563c-3.521,0.063-5.328,2.297-5.33,6.611c-0.004,8.316-0.068,16.634,0.046,24.948 c0.028,2.024-0.369,2.69-2.57,2.683c-7.728-0.025-7.729,0.079-7.729-7.729c0-6.608,0.017-13.215-0.01-19.823 c-0.009-2.198-0.035-4.552-2.017-5.96c-3.053-2.169-7.393,0.275-7.491,4.786c-0.186,8.54-0.182,17.09,0.022,25.63 c0.064,2.673-0.764,3.142-3.213,3.091c-7.111-0.145-7.114-0.034-7.114-7.313c0-10.709,0.155-21.421-0.093-32.124 c-0.076-3.285,1.006-3.903,3.944-3.747C914.228,364.183,914.237,364.008,915.109,369.568z"></path> <path fill="#010101" d="M592.881,90.249c0-5.124,0.064-10.25-0.037-15.372c-0.032-1.644,0.453-2.104,2.094-2.093 c10.02,0.072,20.042,0.072,30.062,0c1.642-0.012,2.103,0.453,2.092,2.093c-0.071,10.248-0.071,20.497,0,30.745 c0.011,1.641-0.452,2.104-2.093,2.092c-10.02-0.072-20.042-0.072-30.062,0c-1.641,0.012-2.125-0.45-2.093-2.093 C592.944,100.499,592.88,95.374,592.881,90.249z"></path> <path fill="#010101" d="M866.969,386.393c-0.107-6.754,0.712-12.692,4.55-17.612c3.955-5.07,9.631-6.376,15.651-5.229 c6.733,1.283,10.53,5.688,12.094,12.427c1.968,8.478,1.995,16.741-1.746,24.699c-2.678,5.696-9.419,8.709-16.417,7.755 c-5.832-0.795-11.453-5.593-12.707-11.157C867.541,393.491,866.475,389.695,866.969,386.393z"></path> <path fill="#010101" d="M736.422,382.119c0,7.515-0.064,15.03,0.044,22.544c0.028,1.918-0.495,2.437-2.432,2.46 c-8.548,0.101-8.547,0.17-8.547-8.257c0-12.98-0.054-25.961,0.052-38.94c0.018-2.201-0.508-2.953-2.78-2.806 c-3.175,0.206-6.376-0.033-9.56,0.087c-1.632,0.062-2.054-0.438-2.115-2.079c-0.306-8.209-0.364-8.207,7.91-8.207 c9.678,0,19.357,0.071,29.034-0.053c2.215-0.029,2.827,0.54,2.808,2.785c-0.066,7.519,0.032,7.52-7.582,7.52 c-6.832,0-6.832,0-6.832,6.844C736.422,370.05,736.422,376.084,736.422,382.119z"></path> <path fill="#010101" d="M770.98,397.109c0.288,0.663,0.609,1.451,0.967,2.221c2.619,5.635,2.53,5.765-3.835,7.872 c-3.561,1.178-7.22,1.75-10.873,1.035c-7.459-1.459-11.214-6.695-12.541-13.701c-1.339-7.067-1.108-14.062,1.195-21.09 c3.319-10.124,17.52-13.31,24.939-6.722c2.994,2.659,4.27,6.476,4.46,10.377c0.14,2.871-0.007,5.794-0.339,8.727 c-0.337,2.977-1.561,2.825-3.575,2.803c-5.007-0.054-10.018,0.078-15.021-0.067c-1.897-0.055-2.202,0.637-2.201,2.319 c0.004,6.378,5.387,10.302,11.661,8.311C767.584,398.635,769.267,397.81,770.98,397.109z"></path> <path fill="#010101" d="M828.349,397.142c0.532,1.162,0.967,2.559,1.749,3.723c1.519,2.259,1.375,3.822-1.264,5.078 c-8.175,3.891-20.789,4.685-25.184-6.817c-3.8-9.944-4.038-20.308,1.915-29.722c3.359-5.313,9.136-6.505,15.042-6.015 c5.558,0.461,9.465,3.761,11.167,8.931c1.624,4.933,1.346,10.128,0.379,15.261c-0.288,1.527-1.299,1.001-2.054,1.008 c-5.235,0.048-10.477,0.185-15.703-0.043c-2.582-0.113-2.981,0.863-2.819,3.087c0.437,6.002,5.672,9.456,11.703,7.52 C825.047,398.586,826.741,397.787,828.349,397.142z"></path> <path fill="#010101" d="M974.985,363.337c3.463-0.429,6.733,1.131,10.134,2.044c0.851,0.228,1.733,0.812,1.383,1.573 c-0.977,2.125-1.307,4.407-1.974,6.602c-0.331,1.091-0.858,0.47-1.505,0.294c-2.433-0.662-4.701-1.914-7.391-1.692 c-1.818,0.151-3.33,0.592-3.879,2.398c-0.574,1.89,0.219,3.343,1.856,4.517c3.23,2.316,7.06,3.69,9.864,6.699 c3.727,3.999,4.935,10.035,2.81,15.143c-2.269,5.455-6.734,7.286-12.194,7.52c-4.167,0.178-8.169-0.532-11.966-2.295 c-1.045-0.485-1.853-0.737-0.936-2.362c1.106-1.96,0.933-5.042,2.433-6.256c1.244-1.008,3.633,1.384,5.773,1.702 c1.913,0.284,3.859,0.8,5.565-0.092c3.024-1.581,2.784-5.646-0.414-7.732c-2.663-1.737-5.657-3.022-8.139-4.973 c-4.777-3.755-6.376-10.106-4.395-15.656C963.723,365.975,968.078,362.951,974.985,363.337z"></path> <path fill="#010101" d="M799.148,398.308c0.421,2.194-0.127,4.474,0.778,6.646c0.404,0.97,0.126,1.766-1.465,2.285 c-2.839,0.927-5.66,1.494-8.539,1.145c-4.735-0.574-6.748-2.507-6.868-7.789c-0.395-17.279-0.479-34.585,0.098-51.854 c0.135-4.029,4.98-0.907,7.528-1.764c1.683-0.566,2.542,0.149,2.528,2.238c-0.096,14.786-0.054,29.572-0.049,44.358 C793.159,398.792,794.189,399.615,799.148,398.308z"></path> <path fill="#010101" d="M862.573,396.982c1.335,2.065,1.246,4.589,2.124,6.818c0.587,1.49-0.779,2.114-1.648,2.504 c-11.039,4.96-22.353,1.771-24.154-12.483c-0.793-6.281-0.969-12.406,0.717-18.569c2.815-10.287,9.711-13.29,19.125-11.527 c6.358,1.191,6.319,1.626,4.294,8c-0.272,0.858,0.961,3.159-2.182,2.004c-5.724-2.104-10.604-1.212-11.993,6.758 c-0.785,4.503-0.919,9.146,1.023,13.507c2.201,4.944,6.073,6.29,10.921,3.898C861.394,397.596,861.98,397.286,862.573,396.982z"></path> <g> <path fill="#010101" d="M568.96,217.27c-1.723-8.989-4.844-17.335-10.866-24.414c-7.492-8.807-17.38-13.846-28.419-18.006 c3.424-1.297,6.513-2.342,9.503-3.62c11.079-4.736,19.497-12.209,23.613-23.81c4.574-12.889,4.455-26.113,2.009-39.344 c-2.229-12.06-8.352-22.13-18.013-29.522c-12.722-9.734-27.844-13.325-43.488-13.801c-18.775-0.571-37.582-0.047-56.374-0.215 c-3.183-0.028-3.801,0.896-3.797,3.9c0.086,64.009,0.061,128.019,0.063,192.028c0,1.022,0.07,2.045,0.107,3.067 c3.061,4.935,4.21,10.579,5.765,16.042c2.085,7.323,3.844,14.74,5.743,22.116c16.854,0.038,33.707,0.063,50.561,0.121 c4.716,0.016,9.334-0.38,14.013-1.275c14.648-2.8,27.046-9.134,36.606-20.882c9.326-11.462,13.133-24.86,14.247-39.163 C570.835,232.756,570.433,224.957,568.96,217.27z M480.875,90.498c7.569,0.328,15.18-0.232,22.719,0.801 c9.014,1.235,18.068,2.675,24.753,9.689c4.378,4.594,6.307,10.319,7.219,16.644c1.209,8.38,0.206,16.444-2.187,24.378 c-4.252,14.093-15.722,21.262-28.938,23.141c-8.263,1.175-16.526,0.21-24.772,0.669c-2.09,0.116-2.355-0.733-2.344-2.531 c0.072-11.731,0.037-23.462,0.037-35.193c0-11.276,0.092-22.553-0.065-33.826C477.257,91.469,477.665,90.359,480.875,90.498z M536.085,236.086c-0.523,6.823-1.154,13.64-3.819,20.119c-4.149,10.086-12.002,15.655-22.137,18.178 c-10.318,2.569-20.918,1.182-31.398,1.436c-2.26,0.055-1.325-1.747-1.329-2.731c-0.062-13.099-0.041-26.197-0.041-39.296 c0-13.099,0.056-26.198-0.054-39.296c-0.019-2.23,0.564-2.813,2.794-2.797c10.01,0.071,20.052-0.198,29.872,2.136 c14.789,3.515,21.793,12.31,24.742,26.558C535.778,225.53,536.489,230.823,536.085,236.086z"></path> <path fill="#181818" d="M443.299,271.062c-0.008,7.511-0.045,15.021-0.016,22.532c0.033,8.522,0.059,8.522,8.789,8.096 c-3.321-9.53-4.673-19.607-8.077-29.114C443.809,272.055,443.533,271.566,443.299,271.062z"></path> <path fill="#0D0D0D" d="M443.298,263.533c0,2.51,0,5.019,0,7.529c0.234,0.504,0.51,0.993,0.697,1.515 c3.404,9.507,4.756,19.583,8.077,29.114c0.911,0,1.823,0.001,2.734,0.001c-1.899-7.376-3.658-14.793-5.743-22.116 C447.508,274.112,446.359,268.469,443.298,263.533z"></path> <path fill="#FFFFFF" d="M509.973,193.835c-9.819-2.334-19.862-2.064-29.872-2.136c-2.23-0.016-2.813,0.567-2.794,2.797 c0.11,13.098,0.054,26.197,0.054,39.296c0,13.099-0.021,26.198,0.041,39.296c0.005,0.983-0.93,2.786,1.329,2.731 c10.48-0.254,21.079,1.133,31.398-1.436c10.135-2.524,17.988-8.092,22.137-18.178c2.665-6.479,3.296-13.296,3.819-20.119 c0.404-5.262-0.308-10.556-1.371-15.693C531.765,206.145,524.762,197.349,509.973,193.835z"></path> <path fill="#FFFFFF" d="M477.361,128.096c0,11.731,0.035,23.463-0.037,35.193c-0.011,1.797,0.254,2.647,2.344,2.531 c8.246-0.458,16.509,0.506,24.772-0.669c13.216-1.879,24.686-9.049,28.938-23.141c2.394-7.934,3.396-15.998,2.187-24.378 c-0.912-6.326-2.841-12.05-7.219-16.644c-6.685-7.015-15.738-8.454-24.753-9.689c-7.539-1.033-15.151-0.473-22.719-0.801 c-3.21-0.139-3.618,0.971-3.579,3.772C477.453,105.544,477.361,116.821,477.361,128.096z"></path> </g> <path fill="#FFFFFF" d="M955.156,217.178c0,12.186,0.051,24.373-0.029,36.558c-0.025,3.88-0.753,7.68-1.878,11.425 c-3.365,11.204-13.017,12.543-21.171,9.605c-4.793-1.727-7.212-6.44-8.295-11.371c-0.882-4.014-1.479-8.093-1.468-12.263 c0.064-23.233-0.071-46.467,0.107-69.699c0.041-5.376,0.717-10.8,3.336-15.744c3.276-6.185,8.688-7.972,15.173-7.399 c4.888,0.432,9.534,3.619,11.574,9.077c1.818,4.863,2.667,9.809,2.657,14.962C955.141,193.945,955.156,205.561,955.156,217.178z"></path> <path fill="#FFFFFF" d="M214.197,197.058c0.214,11.641-9.614,20.087-19.582,19.758c-11.36-0.375-18.853-7.94-19.957-19.778 c-0.887-9.508,9.665-20.441,19.618-20.209C204.505,177.067,214.509,184.837,214.197,197.058z"></path> <path fill="#FFFFFF" d="M319.463,109.988c-0.959-8.749,8.439-17.967,17.513-17.452c9.947,0.564,17.517,8.411,17.114,17.335 c-0.471,10.438-7.006,17.04-17.534,17.552C328.226,127.827,318.346,119.122,319.463,109.988z"></path> <path fill="#FFFFFF" d="M194.365,378.362c-8.78,0.807-17.168-8.544-17.126-17.081c0.048-9.648,8.219-17.969,17.481-17.725 c9.546,0.251,17.15,7.483,17.376,17.779C212.284,369.875,203.76,379.03,194.365,378.362z"></path> <path fill="#FFFFFF" d="M51.827,92.642c9.067-0.505,17.578,8.405,17.406,17.01c-0.206,10.303-7.813,17.474-17.358,17.813 c-9.332,0.332-17.763-8.799-17.519-17.729C34.624,99.965,42.973,91.946,51.827,92.642z"></path> <path fill="#FFFFFF" d="M877.233,384.814c-0.213-2.58,0.199-5.607,1.318-8.589c0.93-2.478,2.597-3.946,5.144-3.956 c2.539-0.01,4.375,1.346,5.17,3.904c1.864,6,1.877,12.072,0.551,18.144c-0.724,3.315-3.282,5.39-5.97,5.234 c-2.602-0.151-5.137-2.601-5.431-5.845c-0.124-1.367-0.832-2.535-0.792-3.892C877.267,388.337,877.233,386.857,877.233,384.814z"></path> <path fill="#FFFFFF" d="M760.003,381.78c-0.113,0-0.242,0.036-0.338-0.005c-1.747-0.753-4.73,1.732-5.34-1.321 c-0.714-3.576,2.662-7.832,5.732-8.24c2.776-0.368,5.247,1.856,5.752,5.178C766.478,381.78,766.478,381.78,760.003,381.78z"></path> <path fill="#FFFFFF" d="M817.254,381.78c-0.34,0-0.72,0.1-1.013-0.017c-1.491-0.595-3.89,1.463-4.547-1.13 c-0.724-2.857,2.188-7.484,4.962-8.23c2.341-0.629,4.398-0.082,5.469,2.431c0.343,0.805,0.903,1.556,1.07,2.39 C824.047,381.476,823.624,381.78,817.254,381.78z"></path> </g> <g id="Layer_2" display="none"> <image display="inline" width="1483" height="630" transform="matrix(0.24 0 0 0.24 525.8539 647.6629)"> </image> </g> </svg>