<?xml version="1.0" encoding="UTF-8" ?>
<!DOCTYPE svg PUBLIC "-//W3C//DTD SVG 1.1//EN" "http://www.w3.org/Graphics/SVG/1.1/DTD/svg11.dtd">
<svg width="1266pt" height="876pt" viewBox="0 0 1266 876" version="1.1" xmlns="http://www.w3.org/2000/svg">
<g id="#ffffffff">
</g>
<g id="#93d301ff">
<path fill="#93d301" opacity="1.00" d=" M 87.82 140.80 C 97.99 119.07 125.69 107.36 148.27 115.77 C 159.76 119.94 168.62 129.47 173.61 140.44 C 207.56 211.46 241.43 282.51 275.36 353.54 C 311.36 307.52 347.69 261.49 389.44 220.50 C 423.76 187.09 461.82 156.37 505.99 137.04 C 540.20 122.01 578.58 115.19 615.69 121.33 C 665.81 129.43 713.60 157.65 741.13 200.87 C 747.17 210.14 752.24 220.68 752.04 232.00 C 752.30 245.49 744.73 258.24 734.02 266.06 C 724.07 273.57 711.52 277.90 699.02 277.22 C 691.49 276.78 683.75 274.13 678.54 268.48 C 675.66 265.31 673.26 261.74 670.55 258.43 C 660.72 246.32 649.60 235.01 636.34 226.66 C 618.47 215.08 596.38 210.12 575.30 213.33 C 557.28 216.08 540.36 223.63 524.73 232.77 C 497.64 248.73 473.80 269.54 451.29 291.33 C 401.56 340.52 358.57 396.00 317.69 452.61 C 312.29 459.83 307.73 467.87 300.68 473.67 C 290.31 482.54 276.62 487.69 262.91 487.00 C 249.83 486.59 237.25 480.00 229.12 469.80 C 224.22 464.01 221.14 457.01 217.79 450.28 C 174.41 360.42 131.78 270.21 88.95 180.09 C 83.01 167.99 81.91 153.12 87.82 140.80 Z" />
<path fill="#93d301" opacity="1.00" d=" M 831.76 144.83 C 839.65 123.46 863.77 109.27 886.30 113.67 C 897.74 115.83 907.70 123.19 914.36 132.58 C 924.51 147.16 934.62 161.78 944.76 176.37 C 986.25 155.49 1028.45 135.69 1072.43 120.56 C 1083.69 117.03 1095.09 112.32 1107.15 113.31 C 1120.24 114.00 1132.49 121.41 1139.80 132.19 C 1149.61 146.32 1152.08 165.75 1144.56 181.44 C 1139.14 193.13 1127.94 201.32 1115.72 204.82 C 1074.75 216.47 1035.28 232.95 997.24 252.02 C 1034.92 306.27 1072.60 360.52 1110.22 414.82 C 1116.72 424.73 1119.93 437.12 1117.36 448.85 C 1112.33 473.32 1086.02 490.96 1061.48 486.34 C 1049.30 484.21 1038.83 476.18 1032.03 466.06 C 993.20 410.10 954.37 354.13 915.51 298.19 C 850.40 338.89 789.07 385.30 729.52 433.66 C 716.65 444.33 703.30 454.49 688.84 462.91 C 670.90 473.42 651.24 481.17 630.71 484.70 C 593.58 490.98 554.47 485.82 520.45 469.54 C 487.45 453.72 459.36 427.87 440.70 396.39 C 434.49 385.88 431.77 372.91 435.15 361.01 C 441.12 339.75 463.31 325.21 485.03 326.07 C 496.47 326.49 507.64 332.41 514.01 342.01 C 523.69 356.90 535.82 370.55 551.01 379.99 C 566.41 389.77 584.81 394.55 603.01 393.96 C 617.29 393.45 631.15 388.59 643.39 381.38 C 659.70 371.97 673.60 359.11 687.47 346.52 C 713.97 321.99 742.64 299.92 772.17 279.20 C 801.43 258.78 831.56 239.64 862.30 221.55 C 855.92 212.30 849.51 203.08 843.10 193.85 C 839.11 188.03 834.65 182.37 832.21 175.66 C 828.28 165.90 828.02 154.68 831.76 144.83 Z" />
<path fill="#93d301" opacity="1.00" d=" M 1141.43 271.59 C 1152.52 268.69 1165.18 271.42 1173.45 279.55 C 1185.43 291.18 1186.35 311.97 1175.81 324.81 C 1166.84 336.12 1150.17 339.47 1137.05 334.08 C 1129.29 330.98 1123.06 324.48 1120.11 316.68 C 1116.46 306.84 1116.97 295.35 1122.18 286.16 C 1126.22 278.91 1133.39 273.57 1141.43 271.59 M 1145.42 277.66 C 1141.97 278.34 1138.65 279.72 1135.84 281.85 C 1124.88 289.83 1122.46 306.33 1129.18 317.78 C 1132.94 324.51 1140.16 329.10 1147.83 329.78 C 1155.99 330.68 1164.55 327.18 1169.54 320.60 C 1177.38 310.54 1177.05 295.01 1168.66 285.37 C 1163.04 278.85 1153.81 275.94 1145.42 277.66 Z" />
<path fill="#93d301" opacity="1.00" d=" M 1138.74 284.51 C 1144.73 284.78 1151.18 283.50 1156.78 286.24 C 1162.05 288.74 1163.36 296.33 1159.81 300.77 C 1158.45 302.57 1156.38 303.59 1154.48 304.68 C 1158.71 309.96 1162.04 315.88 1165.40 321.73 C 1162.67 321.75 1159.94 321.76 1157.23 321.75 C 1154.53 317.41 1152.21 312.84 1149.32 308.64 C 1148.54 307.33 1147.11 306.72 1145.84 306.09 C 1145.67 311.31 1145.78 316.53 1145.75 321.75 C 1143.41 321.75 1141.07 321.74 1138.75 321.74 C 1138.75 309.33 1138.75 296.92 1138.74 284.51 M 1145.76 290.43 C 1145.74 294.00 1145.74 297.57 1145.76 301.15 C 1148.02 300.83 1150.56 300.96 1152.51 299.53 C 1155.15 297.77 1155.27 293.23 1152.57 291.47 C 1150.54 290.20 1148.01 290.61 1145.76 290.43 Z" />
<path fill="#93d301" opacity="1.00" d=" M 404.39 548.56 C 410.08 546.61 417.50 547.72 421.02 553.01 C 423.30 556.20 423.17 560.30 422.87 564.03 C 418.77 610.70 414.66 657.36 410.61 704.04 C 410.04 712.80 411.21 722.83 417.98 729.15 C 421.58 732.90 427.81 732.63 430.78 737.17 C 436.58 745.52 430.75 758.46 421.03 760.56 C 415.95 761.78 410.87 759.72 406.37 757.55 C 396.10 752.44 388.53 742.80 384.93 732.01 C 381.60 722.45 380.93 712.13 381.85 702.11 C 385.96 655.37 390.01 608.63 394.15 561.89 C 394.50 555.90 398.60 550.33 404.39 548.56 Z" />
<path fill="#93d301" opacity="1.00" d=" M 150.62 574.24 C 151.23 567.35 157.08 561.43 163.98 560.82 C 169.08 560.07 174.90 561.87 177.67 566.44 C 179.43 569.26 179.72 572.70 179.37 575.94 C 178.44 585.95 177.61 595.97 176.69 605.99 C 184.50 606.08 192.32 605.85 200.12 606.09 C 204.19 606.14 208.41 607.81 210.69 611.32 C 215.36 618.42 212.45 629.09 205.01 633.08 C 202.27 634.61 199.09 635.00 196.00 635.01 C 188.71 635.02 181.43 634.97 174.15 635.02 C 172.34 656.71 170.29 678.37 168.51 700.06 C 167.95 708.35 168.89 717.78 175.22 723.85 C 182.14 730.20 192.09 731.16 201.05 731.27 C 205.41 731.11 209.96 732.91 212.31 736.73 C 217.55 744.97 212.53 757.54 202.89 759.61 C 196.58 760.54 190.13 759.88 183.85 759.01 C 170.07 756.99 156.22 750.50 148.32 738.64 C 140.35 727.19 138.69 712.67 139.67 699.08 C 141.52 677.72 143.38 656.35 145.29 635.00 C 139.64 635.00 132.95 635.78 128.64 631.29 C 122.70 624.88 124.73 613.50 131.83 608.75 C 136.47 605.42 142.45 606.09 147.84 605.95 C 148.74 595.38 149.62 584.80 150.62 574.24 Z" />
<path fill="#93d301" opacity="1.00" d=" M 904.26 620.88 C 901.49 610.75 911.64 599.95 921.88 601.44 C 926.78 602.19 930.39 605.97 933.63 609.41 C 939.36 615.58 942.78 623.59 944.21 631.83 C 954.78 620.26 967.86 610.46 983.01 605.91 C 994.51 602.47 1007.67 602.52 1018.25 608.71 C 1027.78 614.09 1033.83 623.86 1037.22 634.01 C 1048.49 621.06 1062.80 610.02 1079.57 605.46 C 1090.19 602.71 1102.12 602.73 1111.96 608.08 C 1121.27 612.89 1127.80 621.91 1131.23 631.65 C 1135.55 643.90 1136.09 657.17 1134.91 670.01 C 1132.68 695.75 1130.39 721.49 1128.16 747.23 C 1127.89 751.79 1125.88 756.41 1122.04 759.06 C 1116.30 763.30 1107.11 763.37 1102.12 757.91 C 1099.39 754.97 1098.91 750.77 1099.28 746.95 C 1101.50 721.27 1103.79 695.59 1106.03 669.92 C 1106.83 661.04 1106.84 651.77 1103.66 643.32 C 1101.51 637.48 1096.46 632.15 1089.95 631.76 C 1080.57 631.07 1072.18 636.55 1065.33 642.36 C 1052.38 653.97 1043.30 669.69 1038.67 686.38 C 1036.81 704.59 1035.43 722.85 1033.77 741.09 C 1033.26 746.19 1033.49 751.88 1030.12 756.13 C 1024.84 763.31 1012.34 764.52 1006.68 757.23 C 1003.86 753.76 1004.04 749.05 1004.51 744.87 C 1006.16 726.54 1007.73 708.20 1009.36 689.86 C 1010.08 678.93 1011.89 668.04 1011.41 657.07 C 1010.88 649.19 1009.27 640.38 1002.89 635.04 C 998.22 631.01 991.41 631.04 985.84 632.90 C 976.62 636.02 969.09 642.67 962.77 649.87 C 953.84 660.45 947.20 673.04 943.72 686.45 C 941.69 707.11 940.10 727.82 938.18 748.50 C 937.64 754.16 933.64 759.27 928.27 761.15 C 923.30 762.78 917.19 762.48 913.17 758.82 C 910.14 756.14 908.95 751.91 909.33 747.98 C 911.73 720.71 914.13 693.44 916.52 666.17 C 917.35 655.40 919.27 643.72 914.19 633.68 C 911.86 628.64 905.71 626.43 904.26 620.88 Z" />
<path fill="#93d301" opacity="1.00" d=" M 260.41 615.41 C 276.83 604.37 297.60 600.73 316.96 604.19 C 329.95 606.40 342.31 613.07 350.50 623.51 C 361.92 638.12 365.78 657.86 362.56 675.94 C 361.54 682.68 355.72 688.17 348.95 688.90 C 331.02 690.97 313.06 692.81 295.12 694.83 C 290.48 695.37 285.13 696.04 281.24 692.85 C 273.81 687.00 275.29 674.08 283.05 669.16 C 286.23 666.94 290.17 666.52 293.91 666.17 C 307.44 664.75 320.95 663.20 334.47 661.77 C 333.67 653.60 330.51 645.30 324.15 639.86 C 316.03 632.82 304.60 630.84 294.19 632.16 C 282.45 633.53 271.52 639.88 264.17 649.08 C 255.24 660.24 250.98 674.82 251.54 689.02 C 252.28 704.57 261.74 719.34 275.67 726.34 C 291.38 734.55 311.17 732.49 325.82 722.92 C 329.50 720.36 334.05 718.42 338.60 719.54 C 344.67 720.85 349.19 726.78 349.04 732.96 C 349.27 738.19 346.06 743.01 341.76 745.75 C 327.75 755.12 310.96 760.53 294.04 760.28 C 277.91 760.28 261.74 754.94 249.09 744.87 C 234.66 733.53 225.17 716.29 223.03 698.09 C 219.51 666.61 233.81 633.09 260.41 615.41 Z" />
<path fill="#93d301" opacity="1.00" d=" M 477.97 616.04 C 494.68 604.42 516.14 600.58 536.03 604.29 C 548.66 606.58 560.66 613.08 568.72 623.19 C 580.04 637.35 583.99 656.53 581.35 674.26 C 580.80 679.02 578.47 683.73 574.35 686.36 C 570.21 689.21 564.99 689.15 560.20 689.74 C 543.79 691.50 527.39 693.33 510.98 695.11 C 507.02 695.57 502.54 695.38 499.43 692.57 C 492.97 687.15 493.68 676.11 499.70 670.63 C 502.41 667.97 506.17 666.78 509.87 666.45 C 524.22 664.94 538.56 663.27 552.91 661.81 C 552.25 653.53 548.91 645.14 542.45 639.71 C 534.44 632.85 523.24 630.90 513.02 632.12 C 501.24 633.41 490.23 639.70 482.82 648.90 C 473.78 660.10 469.42 674.80 470.05 689.11 C 470.81 704.49 480.08 719.10 493.79 726.16 C 509.68 734.64 529.84 732.53 544.65 722.70 C 548.69 719.78 554.12 718.10 558.93 720.11 C 564.47 722.17 568.02 728.19 567.52 734.03 C 567.34 738.75 564.42 743.00 560.54 745.54 C 546.35 755.18 529.20 760.61 512.00 760.28 C 493.37 760.18 474.71 752.83 461.59 739.50 C 449.21 727.31 441.97 710.30 441.08 693.01 C 439.68 663.47 453.32 632.91 477.97 616.04 Z" />
<path fill="#93d301" opacity="1.00" d=" M 672.52 603.76 C 690.11 601.22 708.72 604.59 723.79 614.21 C 727.56 616.60 731.80 619.17 733.26 623.69 C 736.66 633.90 726.47 645.64 715.88 643.84 C 711.94 643.21 709.01 640.31 705.69 638.38 C 696.23 632.70 684.70 630.61 673.83 632.40 C 655.51 635.13 639.21 647.89 631.67 664.74 C 626.39 676.37 625.34 690.08 629.85 702.14 C 634.57 715.38 645.99 725.94 659.56 729.63 C 674.00 733.86 689.97 730.58 702.34 722.28 C 706.40 719.42 711.94 718.13 716.58 720.39 C 722.11 722.75 725.28 729.07 724.46 734.94 C 723.96 739.32 721.16 743.16 717.54 745.55 C 703.62 754.98 686.89 760.42 670.03 760.28 C 653.16 760.35 636.17 754.66 623.23 743.73 C 613.09 735.32 605.51 723.93 601.50 711.39 C 595.63 693.04 597.34 672.64 605.17 655.13 C 617.08 628.17 643.22 607.83 672.52 603.76 Z" />
<path fill="#93d301" opacity="1.00" d=" M 808.49 603.73 C 824.88 601.44 842.14 604.15 856.57 612.45 C 872.02 621.12 883.77 636.01 888.84 652.97 C 896.27 677.41 890.23 704.88 874.87 725.03 C 858.34 747.28 830.87 761.45 802.97 760.24 C 784.49 759.67 766.18 751.97 753.38 738.52 C 743.58 728.30 737.05 715.05 734.79 701.09 C 731.37 680.69 736.57 659.21 748.12 642.15 C 761.69 621.68 784.09 607.10 808.49 603.73 M 808.44 632.59 C 785.35 636.52 765.92 656.50 763.17 679.85 C 761.03 695.06 766.95 711.33 778.97 721.06 C 788.88 729.29 802.36 732.84 815.08 731.03 C 827.10 729.44 838.48 723.62 846.95 714.95 C 857.70 704.34 863.89 689.08 862.90 673.95 C 862.04 661.31 855.83 648.99 845.68 641.31 C 835.30 633.20 821.33 630.16 808.44 632.59 Z" />
</g>
</svg>
